<svg width="44" height="44" viewBox="0 0 44 44" fill="none" xmlns="http://www.w3.org/2000/svg">
<path d="M33.1807 10.1406C33.3681 9.95337 33.672 9.95324 33.8594 10.1406C34.0466 10.328 34.0466 10.6319 33.8594 10.8193L22.6787 22L33.8594 33.1807L33.9209 33.2549C34.0439 33.4412 34.0234 33.6953 33.8594 33.8594C33.6953 34.0234 33.4412 34.0439 33.2549 33.9209L33.1807 33.8594L22 22.6787L10.8193 33.8594C10.6319 34.0466 10.328 34.0466 10.1406 33.8594C9.95322 33.672 9.95332 33.3681 10.1406 33.1807L21.3213 22L10.1406 10.8193C9.95318 10.6319 9.95318 10.3281 10.1406 10.1406C10.3281 9.9532 10.6319 9.95318 10.8193 10.1406L22 21.3213L33.1807 10.1406Z" fill="url(#paint0_linear_35_1107)"/>
<defs>
<linearGradient id="paint0_linear_35_1107" x1="18.3707" y1="15.873" x2="44.7162" y2="25.6738" gradientUnits="userSpaceOnUse">
<stop stop-color="#2C2B38"/>
<stop offset="1" stop-color="#7C799E"/>
</linearGradient>
</defs>
</svg>
