<svg width="1440" height="1125" viewBox="0 0 1440 1125" fill="none" xmlns="http://www.w3.org/2000/svg">
<path fill-rule="evenodd" clip-rule="evenodd" d="M844.713 69.1141C844.711 69.1275 844.708 69.1411 844.706 69.155C844.723 69.052 844.727 69.0352 844.713 69.1141ZM777.743 595.116C775.459 625.253 774.004 655.897 774.243 686.344C774.216 687.08 774.181 688.138 774.159 689.315C774.113 691.747 774.012 698.303 775.027 705.743C775.505 709.243 776.689 716.643 780.097 725.173C782.657 731.58 792.085 753.213 817.548 765.428C848.589 780.318 876.487 769.503 889.49 761.47C901.213 754.229 908.312 745.418 911.169 741.7C926.745 721.436 940.001 693.734 947.471 678.123C949.137 674.642 950.515 671.762 951.567 669.7C955.416 662.156 959.25 654.633 963.073 647.129C983.541 606.961 1003.71 567.373 1024.22 528.443C1020.3 552.983 1016.41 577.52 1012.55 602.049C1012.55 602.045 1012.55 602.043 1012.55 602.043C1012.54 602.042 1012.37 602.922 1011.75 605.682L1011.6 606.369C1010.97 609.183 1010.04 613.38 1009.2 617.718C1008.31 622.356 1007.21 628.695 1006.62 635.569C1006.11 641.475 1005.46 652.894 1008.2 665.765C1009.06 669.789 1010.98 677.508 1015.5 686.152C1019.68 694.137 1030.44 711.16 1052.84 720.595C1078.07 731.223 1101.26 725.447 1115.03 718.593C1127.17 712.554 1134.74 704.664 1137.93 701.103C1144.64 693.633 1148.68 686.183 1150.1 683.522C1152.1 679.801 1153.73 676.242 1154.9 673.592C1156.96 668.895 1159.01 663.698 1160.38 660.25C1160.52 659.892 1160.65 659.552 1160.78 659.234C1162.06 655.99 1162.64 654.59 1162.8 654.203C1162.88 654.013 1162.85 654.065 1162.76 654.26C1165.31 648.991 1167.87 643.728 1170.42 638.473C1210.62 555.629 1249.99 474.509 1292.42 395.168C1308.72 409.165 1330.97 415.945 1353.74 411.767C1390.91 404.948 1416.42 371.334 1414.01 334.494C1414.75 329.306 1415.48 324.139 1416.21 318.989C1419.27 297.406 1422.29 276.119 1425.46 254.813C1426.56 247.428 1427.95 238.992 1429.45 229.926C1433.02 208.255 1437.19 182.984 1439.37 159.867C1439.73 156.025 1440.25 149.449 1439.86 142.155C1439.67 138.458 1439.16 132.648 1437.5 125.907C1436 119.802 1432.37 107.925 1422.92 96.022C1411.96 82.2168 1394.57 70.443 1372.3 67.9256C1352.7 65.7111 1337.48 71.6245 1329.63 75.5088C1315.17 82.6654 1305.71 93.0173 1302.32 96.7704C1273.19 129.036 1248.66 168.134 1227.84 205.065C1228.2 198.459 1227.97 190.413 1226.12 182.012C1223.58 170.448 1215.41 146.982 1190.08 132.175C1165.13 117.597 1141.05 121.699 1130.04 124.836C1120.05 127.682 1112.52 131.951 1108.04 134.805C1103.27 137.851 1099.41 140.948 1096.64 143.348C1091.19 148.06 1086.72 152.873 1083.8 156.173C1080.69 159.683 1077.97 163.016 1076.17 165.257C1073.53 168.542 1073.76 168.275 1073.89 168.126C1051.93 193.737 1033.74 220.918 1018.03 244.978C994.773 280.593 972.866 316.858 951.931 353.429C962.06 272.685 973.71 192.014 986.354 111.184C986.405 110.966 986.607 110.036 987.098 107.913L987.22 107.39C987.827 104.771 988.913 100.092 989.738 95.5629C990.189 93.0828 990.795 89.4221 991.175 85.2677C991.448 82.2885 992.193 73.6019 990.39 63.1946L990.382 63.1533C989.629 58.8042 982.208 15.9521 936.453 3.41533C915.768 -2.2523 898.443 2.34799 889.011 6.10126C879.589 9.8502 872.912 14.7112 869.383 17.5165C860.91 24.252 855.01 31.4738 851.516 36.1442C847.767 41.1562 844.779 45.9744 842.654 49.5894C840.494 53.2635 838.623 56.7366 837.396 59.0236C837.165 59.4554 836.966 59.8259 836.789 60.1573C836.422 60.8414 836.145 61.3591 835.849 61.9064C835.436 62.6695 835.301 62.9019 835.327 62.8574C806.986 111.908 783.777 164.025 763.13 214.909C754.973 200.036 738.191 179.868 705.944 175.964C684.576 173.376 668.01 180.413 659.253 185.327C650.336 190.332 644.043 196.144 640.405 199.833C623.991 216.479 611.806 238.394 606.313 248.273C605.648 249.47 605.081 250.49 604.616 251.303C583.841 287.642 565.772 324.794 549.268 361.222C545.954 368.536 542.68 375.865 539.443 383.208C534.43 379.881 528.774 377.009 522.465 374.849C506.638 369.431 492.293 370.398 482.306 372.607C464.869 376.464 453.61 385.599 450.583 388.071C442.681 394.526 437.37 401.528 435.704 403.723L435.68 403.754C433.119 407.13 430.876 410.461 429.177 413.079C422.75 422.977 416.303 434.871 416.673 434.206C372.821 513.084 336.182 597.478 301.672 676.969C300.687 679.238 299.703 681.503 298.722 683.764C296.813 641.685 292.945 598.057 284.344 555.817L284.315 555.678C283.001 549.215 277.657 522.951 253.403 504.532C238.32 493.078 219.912 487.79 201.624 489.053C185.391 490.175 173.289 496.13 166.62 500.103C154.353 507.412 146.22 516.757 143.684 519.671L143.626 519.737C140.825 522.955 137.724 526.917 136.718 528.202C136.579 528.379 136.48 528.506 136.427 528.572C109.683 562.253 88.5707 600.984 71.5115 632.278C69.2433 636.439 67.0468 640.469 64.9182 644.337C61.3732 650.781 57.54 657.603 53.5346 664.732C38.0155 692.352 19.9114 724.574 5.9678 757.166C-10.0537 794.614 7.2944 837.97 44.7159 854.003C82.1375 870.036 125.462 852.675 141.483 815.227C145.242 806.44 149.307 797.853 153.66 789.232C153.717 792.649 153.777 796.083 153.842 799.534C154.404 829.453 154.654 860.959 154.908 892.943C155.258 936.989 155.616 981.941 156.804 1024.9C156.795 1025.19 156.778 1025.69 156.747 1026.44C156.737 1026.66 156.726 1026.92 156.714 1027.21C156.634 1029.08 156.503 1032.16 156.447 1035.22C156.382 1038.75 156.372 1043.94 156.832 1049.65C157.23 1054.58 158.277 1064.35 162.294 1075.2C163.682 1078.94 166.66 1086.23 172.396 1094.08C177.798 1101.47 190.709 1116.22 213.601 1122.27C239.119 1129.01 260.694 1120.83 273.382 1112.5C284.581 1105.14 291.068 1096.54 293.8 1092.65C299.471 1084.56 302.422 1076.95 303.345 1074.56C304.701 1071.04 305.705 1067.84 306.349 1065.67C307.438 1062.02 308.483 1057.98 309.073 1055.69C309.154 1055.37 309.227 1055.09 309.29 1054.85C309.568 1053.78 309.753 1053.09 309.858 1052.7C333.252 986.943 358.022 921.958 384.517 857.726C387.017 862.365 392.132 870.707 401.166 878.601C412.228 888.268 431.861 899.177 457.509 896.544C480.968 894.135 496.036 881.639 502.788 874.801C509.798 867.702 513.835 860.753 515.743 857.187C524.279 841.237 530.34 824.71 534.799 811.587C537.391 803.96 539.138 798.516 540.669 793.746C542.448 788.203 543.935 783.569 546.116 777.475C548.462 770.923 550.801 764.381 553.138 757.849C561.048 735.733 568.918 713.731 576.817 691.849C576.211 700.818 575.927 714.704 579.287 729.515C580.246 733.742 582.365 741.646 587.297 750.429C592.133 759.04 603.051 774.353 623.931 782.978C646.61 792.347 667.775 788.47 681.416 782.686C693.593 777.522 701.499 770.349 705.135 766.757C712.505 759.476 716.898 752.134 718.414 749.563C720.53 745.975 722.185 742.64 723.318 740.243C726.895 732.68 730.396 723.29 731.586 720.1C731.727 719.72 731.836 719.428 731.909 719.238C748.122 676.524 763.125 635.483 777.743 595.116ZM590.073 677.141L590.071 677.144L590.072 677.143L590.073 677.141ZM303.829 1038.82C303.829 1038.82 303.829 1038.82 303.829 1038.82C303.83 1038.84 303.829 1038.84 303.829 1038.82ZM794.322 651.761C794.336 651.742 794.352 651.722 794.367 651.702C794.352 651.722 794.337 651.741 794.322 651.761ZM1194.57 253.528C1194.57 253.527 1194.55 253.552 1194.5 253.603C1194.54 253.553 1194.57 253.528 1194.57 253.528ZM774.295 684.939C774.295 684.929 774.293 685.026 774.284 685.261C774.29 685.067 774.294 684.95 774.295 684.939Z" fill="#F6F8FB"/>
</svg>
