<svg width="799" height="535" viewBox="0 0 799 535" fill="none" xmlns="http://www.w3.org/2000/svg">
<path fill-rule="evenodd" clip-rule="evenodd" d="M769.094 118.151C769.086 118.156 769.079 118.161 769.072 118.166C769.126 118.128 769.136 118.122 769.094 118.151ZM499.642 323.396C484.9 335.862 470.299 348.933 456.547 362.686C456.199 363.004 455.702 363.462 455.156 363.98C454.029 365.049 450.999 367.941 448.067 371.737C446.688 373.523 443.85 377.379 441.495 382.753C439.725 386.789 434.103 400.776 439.955 417.841C447.088 438.644 464.513 446.496 473.997 448.816C482.547 450.907 489.739 450.19 492.712 449.824C508.917 447.832 527.467 441.452 537.921 437.857C540.252 437.055 542.181 436.392 543.591 435.946C548.75 434.317 553.893 432.691 559.022 431.068C586.48 422.384 613.541 413.826 640.451 405.713C627.525 414.928 614.613 424.154 601.715 433.387C601.717 433.385 601.718 433.384 601.718 433.384C601.715 433.381 601.236 433.696 599.705 434.653L599.323 434.891C597.762 435.867 595.432 437.323 593.083 438.886C590.571 440.557 587.195 442.9 583.801 445.711C580.884 448.126 575.392 452.945 570.763 459.963C569.316 462.157 566.661 466.489 564.755 472.422C562.994 477.905 560.067 490.431 565.81 504.855C572.278 521.102 585.3 529.07 594.592 532.268C602.78 535.086 609.763 534.994 612.816 534.854C619.222 534.559 624.423 533.058 626.274 532.515C628.861 531.755 631.213 530.903 632.942 530.246C636.006 529.082 639.292 527.688 641.471 526.762C641.698 526.666 641.913 526.575 642.114 526.489C644.166 525.62 645.064 525.258 645.31 525.155C645.431 525.105 645.396 525.116 645.265 525.161C648.81 523.964 652.35 522.768 655.885 521.574C711.613 502.748 766.182 484.314 821.313 468.071C822.247 481.764 829.131 494.929 841.239 503.423C861.001 517.287 887.734 513.835 903.424 496.229C906.116 494.24 908.797 492.257 911.468 490.282C922.664 482.002 933.706 473.836 944.825 465.73C948.68 462.921 953.144 459.774 957.941 456.392C969.409 448.309 982.782 438.882 994.28 429.513C996.192 427.956 999.416 425.243 1002.56 421.801C1004.16 420.055 1006.58 417.219 1008.9 413.442C1011.01 410.022 1014.79 403.049 1015.97 393.413C1017.34 382.237 1014.91 369.044 1006.07 357.777C998.301 347.866 988.785 343.585 983.5 341.753C973.762 338.379 964.812 338.713 961.585 338.852C933.839 340.049 905.05 346.406 878.908 353.479C882.079 350.685 885.635 346.971 888.632 342.366C892.757 336.027 899.778 321.792 895.164 303.623C890.621 285.735 877.962 276.612 871.6 273.006C865.828 269.735 860.508 268.218 857.203 267.46C853.676 266.651 850.538 266.283 848.202 266.095C843.615 265.727 839.423 265.852 836.611 265.999C833.618 266.156 830.886 266.415 829.058 266.599C826.378 266.868 826.603 266.854 826.728 266.845C805.23 268.328 784.705 272.228 766.711 275.859C740.077 281.234 713.751 287.514 687.722 294.374C729.017 262.799 770.959 231.949 813.42 201.48C813.542 201.406 814.056 201.081 815.243 200.353L815.535 200.174C817 199.277 819.616 197.674 822.047 196.02C823.379 195.114 825.317 193.749 827.378 192.061C828.856 190.85 833.145 187.296 837.074 181.811L837.089 181.789C838.731 179.497 854.912 156.914 840.113 130.468C833.423 118.512 823.565 112.688 817.629 110.076C811.701 107.467 806.496 106.607 803.637 106.258C796.774 105.419 790.842 105.97 787.151 106.472C783.189 107.012 779.657 107.811 777.059 108.464C774.418 109.127 771.999 109.832 770.408 110.298C770.108 110.386 769.85 110.462 769.62 110.53C769.144 110.67 768.784 110.776 768.402 110.886C767.87 111.04 767.704 111.083 767.735 111.075C732.706 120.156 698.581 132.947 666.166 146.352C669.28 135.974 670.94 119.297 658.265 102.868C649.867 91.9815 639.24 87.5942 633.078 85.8104C626.804 83.994 621.338 83.734 618.029 83.7314C603.095 83.7195 587.659 87.9941 580.7 89.921C579.857 90.1545 579.138 90.3535 578.56 90.5062C552.708 97.3351 527.699 105.76 503.72 114.573C498.906 116.342 494.102 118.136 489.309 119.953C488.577 116.18 487.349 112.319 485.505 108.478C480.878 98.8457 474.01 92.749 468.528 89.193C458.958 82.9844 449.754 81.9529 447.272 81.6831C440.793 80.9787 435.225 81.6987 433.479 81.9245L433.455 81.9277C430.77 82.2748 428.249 82.7466 426.295 83.1461C418.909 84.6566 410.606 87.052 411.075 86.9223C355.517 102.31 300.68 123.454 249.029 143.368C247.555 143.937 246.083 144.504 244.614 145.071C262.913 125.344 281.04 104.031 296.413 81.1862L296.464 81.1108C298.816 77.6162 308.377 63.4135 305.892 44.1184C304.346 32.1195 298.504 21.3697 289.733 13.6112C281.947 6.7246 273.813 3.88461 269.016 2.62945C260.191 0.320779 252.293 0.806624 249.829 0.95816L249.774 0.961571C247.053 1.12869 243.86 1.49228 242.824 1.61025C242.681 1.62654 242.579 1.63816 242.525 1.64392C215.208 4.56419 188.116 12.3108 166.226 18.5703C163.315 19.4025 160.497 20.2085 157.782 20.9733C153.26 22.2471 148.437 23.5596 143.397 24.9311C123.869 30.2451 101.088 36.4442 80.0029 44.7031C55.776 54.1928 43.815 81.5197 53.2872 105.739C62.7595 129.959 90.0781 141.9 114.305 132.411C119.989 130.184 125.72 128.186 131.595 126.304C130.065 127.861 128.529 129.427 126.987 131.003C113.619 144.668 99.3899 158.901 84.9446 173.351C65.0517 193.249 44.7496 213.557 25.7253 233.352C25.5895 233.477 25.3574 233.69 25.002 234.013C24.8949 234.11 24.7717 234.221 24.6346 234.345C23.7493 235.145 22.2861 236.468 20.8707 237.811C19.2314 239.367 16.8658 241.687 14.4725 244.456C12.4089 246.844 8.42849 251.701 5.29223 258.39C4.20875 260.7 2.22777 265.32 1.22468 271.45C0.280006 277.222 -0.649304 289.711 6.85829 302.84C15.2272 317.476 28.6169 323.634 38.0973 325.674C46.4649 327.475 53.287 326.574 56.2841 326.072C62.5051 325.03 67.2936 322.962 68.7956 322.31C71.0026 321.353 72.9125 320.373 74.1853 319.697C76.3347 318.557 78.6458 317.218 79.9511 316.462C80.131 316.358 80.2917 316.265 80.4303 316.185C81.0438 315.831 81.4393 315.607 81.6622 315.482C122.081 296.66 162.763 278.812 203.875 262.087C202.884 265.304 201.379 271.371 201.834 279.02C202.391 288.388 206.224 302.214 218.917 312.71C230.527 322.309 242.968 323.568 249.107 323.577C255.479 323.586 260.452 322.31 262.931 321.58C274.016 318.317 284.256 313.67 292.228 309.819C296.861 307.581 300.122 305.936 302.979 304.495C306.3 302.821 309.076 301.421 312.827 299.683C316.861 297.814 320.887 295.948 324.908 294.084C338.52 287.773 352.063 281.495 365.563 275.285C361.209 279.028 354.761 285.122 349.524 293.289C348.03 295.62 345.382 300.126 343.594 306.308C341.842 312.368 339.764 324.2 345.195 337.571C351.094 352.093 362.344 359.99 371.091 363.607C378.898 366.836 385.706 367.22 388.971 367.266C395.588 367.358 400.899 366.067 402.749 365.605C405.33 364.96 407.59 364.219 409.189 363.661C414.235 361.899 420.079 359.285 422.063 358.397C422.3 358.291 422.482 358.209 422.601 358.157C449.311 346.395 474.716 334.832 499.642 323.396ZM85.2782 306.517L85.2811 306.514C85.2734 306.522 85.2723 306.523 85.2782 306.517ZM841.936 360.052C841.936 360.052 841.915 360.053 841.87 360.053C841.914 360.052 841.936 360.052 841.936 360.052ZM457.209 362.081C457.214 362.076 457.169 362.119 457.058 362.22C457.149 362.135 457.204 362.085 457.209 362.081Z" fill="url(#paint0_linear_1_716)"/>
<defs>
<linearGradient id="paint0_linear_1_716" x1="176.014" y1="67.1909" x2="218.655" y2="622.671" gradientUnits="userSpaceOnUse">
<stop stop-color="#DDFB24"/>
<stop offset="1" stop-color="#A9FF40"/>
</linearGradient>
</defs>
</svg>
