<svg width="30" height="30" viewBox="0 0 30 30" fill="none" xmlns="http://www.w3.org/2000/svg">
<path d="M1.07617 25.5887C1.07617 26.1914 1.47796 26.5807 2.08064 26.5807H27.0541C27.6066 26.5807 28.0711 26.1412 28.0711 25.5762C28.0711 25.0238 27.6066 24.5717 27.0541 24.5717H3.44921C3.18555 24.5717 3.09766 24.4839 3.09766 24.2202V4.36945C3.09766 3.82956 2.64564 3.36499 2.09319 3.36499C1.52818 3.36499 1.07617 3.82956 1.07617 4.36945V25.5887ZM2.39453 17.7791L10.4679 13.1083L16.2812 18.0929L26.6146 11.9406L25.8237 10.6599L16.3817 16.2849L10.5935 11.3254L2.39453 16.0589V17.7791ZM10.3047 14.8033C11.5352 14.8033 12.5396 13.7989 12.5396 12.5684C12.5396 11.3379 11.5352 10.346 10.3047 10.346C9.07422 10.346 8.06975 11.3379 8.06975 12.5684C8.06975 13.7989 9.07422 14.8033 10.3047 14.8033ZM16.231 19.4113C17.4615 19.4113 18.4535 18.4069 18.4535 17.1763C18.4535 15.9459 17.4615 14.954 16.231 14.954C15.0006 14.954 13.9961 15.9459 13.9961 17.1763C13.9961 18.4069 15.0006 19.4113 16.231 19.4113ZM25.6981 13.6984C26.9286 13.6984 27.933 12.694 27.933 11.4635C27.933 10.233 26.9286 9.22855 25.6981 9.22855C24.4676 9.22855 23.4631 10.233 23.4631 11.4635C23.4631 12.694 24.4676 13.6984 25.6981 13.6984Z" fill="black" fill-opacity="0.2"/>
</svg>
