<svg width="1441" height="1125" viewBox="0 0 1441 1125" fill="none" xmlns="http://www.w3.org/2000/svg">
<path fill-rule="evenodd" clip-rule="evenodd" d="M845.074 68.8744C845.072 68.8878 845.07 68.9013 845.067 68.9152C845.084 68.8123 845.089 68.7954 845.074 68.8744ZM778.104 594.876C775.82 625.014 774.366 655.658 774.604 686.104C774.577 686.841 774.542 687.898 774.52 689.075C774.474 691.507 774.373 698.063 775.388 705.503C775.866 709.003 777.05 716.404 780.458 724.934C783.018 731.34 792.446 752.973 817.909 765.188C848.95 780.078 876.848 769.263 889.852 761.231C901.575 753.989 908.673 745.178 911.531 741.461C927.106 721.196 940.362 693.495 947.832 677.884C949.498 674.402 950.877 671.523 951.929 669.46C955.777 661.917 959.611 654.393 963.434 646.889C983.903 606.721 1004.08 567.133 1024.58 528.203C1020.66 552.744 1016.78 577.28 1012.91 601.809C1012.91 601.805 1012.91 601.803 1012.91 601.803C1012.9 601.802 1012.73 602.683 1012.11 605.442L1011.96 606.13C1011.33 608.944 1010.4 613.141 1009.56 617.478C1008.67 622.116 1007.57 628.456 1006.98 635.329C1006.47 641.235 1005.82 652.654 1008.56 665.526C1009.42 669.549 1011.34 677.268 1015.86 685.912C1020.04 693.898 1030.8 710.92 1053.2 720.355C1078.43 730.983 1101.62 725.207 1115.39 718.353C1127.53 712.314 1135.1 704.424 1138.29 700.863C1145 693.393 1149.04 685.943 1150.46 683.282C1152.46 679.561 1154.09 676.003 1155.26 673.353C1157.32 668.655 1159.38 663.458 1160.74 660.01C1160.88 659.652 1161.01 659.312 1161.14 658.994C1162.42 655.75 1163.01 654.351 1163.16 653.963C1163.24 653.774 1163.21 653.825 1163.12 654.02C1165.68 648.751 1168.23 643.488 1170.78 638.233C1210.98 555.39 1250.35 474.269 1292.78 394.928C1309.08 408.925 1331.33 415.705 1354.1 411.527C1391.27 404.708 1416.78 371.094 1414.37 334.254C1415.11 329.066 1415.84 323.899 1416.57 318.749C1419.63 297.167 1422.65 275.88 1425.82 254.573C1426.92 247.188 1428.31 238.752 1429.81 229.686C1433.38 208.015 1437.55 182.744 1439.73 159.627C1440.09 155.785 1440.61 149.209 1440.23 141.916C1440.03 138.218 1439.52 132.408 1437.86 125.667C1436.36 119.562 1432.73 107.685 1423.28 95.7822C1412.32 81.9771 1394.93 70.2032 1372.66 67.6859C1353.07 65.4713 1337.84 71.3848 1329.99 75.269C1315.53 82.4257 1306.07 92.7776 1302.69 96.5306C1273.55 128.796 1249.02 167.894 1228.2 204.825C1228.57 198.219 1228.33 190.173 1226.48 181.772C1223.94 170.208 1215.77 146.743 1190.44 131.935C1165.49 117.357 1141.41 121.459 1130.4 124.596C1120.41 127.442 1112.88 131.712 1108.4 134.565C1103.63 137.611 1099.77 140.709 1097 143.108C1091.55 147.821 1087.08 152.634 1084.16 155.933C1081.05 159.443 1078.34 162.776 1076.53 165.017C1073.89 168.302 1074.12 168.035 1074.25 167.887C1052.29 193.497 1034.1 220.678 1018.39 244.738C995.134 280.353 973.227 316.618 952.292 353.19C962.421 272.446 974.071 191.774 986.715 110.944C986.767 110.727 986.969 109.796 987.46 107.673L987.581 107.15C988.189 104.531 989.274 99.8526 990.099 95.3231C990.55 92.843 991.156 89.1823 991.537 85.028C991.809 82.0487 992.555 73.3622 990.751 62.9548L990.744 62.9136C989.99 58.5645 982.569 15.7123 936.814 3.17559C916.129 -2.49205 898.804 2.10825 889.372 5.86151C879.95 9.61045 873.274 14.4715 869.745 17.2768C861.271 24.0123 855.371 31.234 851.878 35.9045C848.129 40.9165 845.141 45.7347 843.015 49.3497C840.855 53.0238 838.984 56.4968 837.758 58.7838C837.526 59.2157 837.328 59.5861 837.15 59.9176C836.784 60.6017 836.507 61.1194 836.21 61.6666C835.797 62.4297 835.663 62.6622 835.688 62.6176C807.347 111.668 784.138 163.785 763.491 214.669C755.335 199.796 738.552 179.628 706.305 175.724C684.937 173.137 668.371 180.173 659.615 185.088C650.698 190.092 644.404 195.904 640.767 199.593C624.352 216.239 612.167 238.154 606.675 248.033C606.009 249.23 605.442 250.25 604.977 251.063C584.203 287.402 566.134 324.554 549.629 360.983C546.316 368.296 543.042 375.625 539.804 382.968C534.791 379.641 529.135 376.77 522.826 374.61C506.999 369.191 492.654 370.158 482.667 372.367C465.231 376.224 453.971 385.359 450.945 387.831C443.042 394.286 437.731 401.288 436.065 403.483L436.042 403.514C433.481 406.89 431.238 410.221 429.538 412.839C423.111 422.737 416.665 434.631 417.034 433.966C373.183 512.844 336.544 597.238 302.033 676.729C301.048 678.998 300.065 681.263 299.083 683.524C297.174 641.446 293.306 597.817 284.705 555.578L284.677 555.438C283.362 548.976 278.019 522.712 253.764 504.293C238.682 492.839 220.273 487.55 201.985 488.814C185.752 489.936 173.651 495.89 166.981 499.864C154.714 507.172 146.582 516.517 144.045 519.431L143.988 519.497C141.187 522.715 138.085 526.677 137.079 527.962C136.94 528.14 136.841 528.266 136.788 528.333C110.044 562.014 88.9321 600.744 71.8728 632.039C69.6046 636.2 67.4081 640.229 65.2795 644.098C61.7345 650.541 57.9013 657.363 53.8959 664.492C38.3769 692.112 20.2727 724.334 6.32912 756.926C-9.69241 794.374 7.65573 837.73 45.0773 853.763C82.4988 869.796 125.823 852.435 141.845 814.987C145.604 806.201 149.669 797.614 154.021 788.993C154.078 792.409 154.138 795.843 154.203 799.294C154.765 829.213 155.016 860.72 155.27 892.703C155.62 936.749 155.977 981.701 157.165 1024.66C157.156 1024.95 157.139 1025.45 157.108 1026.2C157.099 1026.42 157.087 1026.68 157.075 1026.97C156.996 1028.84 156.864 1031.92 156.808 1034.98C156.743 1038.51 156.733 1043.7 157.194 1049.41C157.591 1054.34 158.638 1064.11 162.655 1074.96C164.043 1078.7 167.021 1085.99 172.757 1093.84C178.159 1101.23 191.07 1115.98 213.962 1122.03C239.48 1128.77 261.056 1120.59 273.743 1112.26C284.942 1104.9 291.429 1096.3 294.161 1092.41C299.832 1084.32 302.783 1076.71 303.706 1074.32C305.062 1070.8 306.066 1067.6 306.711 1065.43C307.799 1061.78 308.844 1057.74 309.434 1055.45C309.515 1055.13 309.588 1054.85 309.651 1054.61C309.93 1053.54 310.115 1052.85 310.219 1052.46C333.614 986.703 358.384 921.718 384.878 857.486C387.379 862.125 392.494 870.467 401.527 878.361C412.589 888.028 432.222 898.937 457.871 896.304C481.329 893.895 496.397 881.399 503.15 874.561C510.159 867.462 514.196 860.513 516.105 856.947C524.64 840.997 530.702 824.471 535.161 811.348C537.752 803.72 539.499 798.277 541.03 793.506C542.809 787.963 544.296 783.329 546.478 777.235C548.823 770.684 551.163 764.142 553.499 757.61C561.41 735.494 569.279 713.491 577.179 691.609C576.572 700.578 576.288 714.464 579.648 729.276C580.607 733.503 582.726 741.406 587.658 750.189C592.495 758.8 603.412 774.113 624.292 782.738C646.971 792.107 668.137 788.23 681.777 782.446C693.954 777.283 701.86 770.109 705.496 766.518C712.866 759.236 717.259 751.894 718.775 749.324C720.892 745.735 722.547 742.401 723.68 740.004C727.256 732.44 730.758 723.05 731.947 719.86C732.089 719.48 732.198 719.188 732.27 718.998C748.483 676.284 763.486 635.243 778.104 594.876ZM590.434 676.901L590.432 676.905L590.433 676.904L590.434 676.901ZM304.191 1038.58C304.191 1038.58 304.19 1038.58 304.19 1038.58C304.191 1038.6 304.191 1038.6 304.191 1038.58ZM794.683 651.521C794.698 651.502 794.713 651.483 794.728 651.462C794.713 651.482 794.698 651.502 794.683 651.521ZM1194.93 253.288C1194.93 253.287 1194.91 253.313 1194.86 253.363C1194.9 253.313 1194.93 253.288 1194.93 253.288ZM774.656 684.7C774.657 684.689 774.654 684.786 774.646 685.021C774.651 684.827 774.655 684.71 774.656 684.7Z" fill="white"/>
</svg>
