<svg width="32" height="32" viewBox="0 0 32 32" fill="none" xmlns="http://www.w3.org/2000/svg">
<path d="M1.34752 19.2559C-0.450639 17.4577 -0.450639 14.5423 1.34752 12.7441L6.6383 7.45336L9.94521 10.7603C9.73986 11.1063 9.62196 11.5104 9.62196 11.9419V20.0581C9.62196 21.3387 10.6602 22.3769 11.9408 22.3769H20.057C21.3376 22.3769 22.3758 21.3387 22.3758 20.0581V11.9419C22.3758 10.6613 21.3376 9.62305 20.057 9.62305H11.9408C11.5093 9.62305 11.1052 9.74096 10.7592 9.94631L7.45226 6.6394L12.743 1.34862C14.5412 -0.449541 17.4566 -0.449541 19.2548 1.34862L30.6503 12.7441C32.4484 14.5423 32.4484 17.4577 30.6503 19.2559L19.2548 30.6514C17.4566 32.4495 14.5412 32.4495 12.743 30.6514L1.34752 19.2559Z" fill="#DDFB24"/>
</svg>
