<svg width="26" height="26" viewBox="0 0 26 26" fill="none" xmlns="http://www.w3.org/2000/svg">
<path fill-rule="evenodd" clip-rule="evenodd" d="M7.375 4.5625C7.375 2.49143 9.05393 0.8125 11.125 0.8125H14.875C16.9461 0.8125 18.625 2.49143 18.625 4.5625V4.81872C19.7906 4.92542 20.9467 5.06495 22.0926 5.2364C23.9101 5.50835 25.1875 7.08954 25.1875 8.88211V12.6736C25.1875 14.1875 24.2704 15.6141 22.7672 16.1139C19.6957 17.135 16.4115 17.6875 13 17.6875C9.58858 17.6875 6.30428 17.135 3.23283 16.1138C1.72955 15.614 0.8125 14.1875 0.8125 12.6736V8.88211C0.8125 7.08954 2.08988 5.50835 3.90745 5.2364C5.05325 5.06496 6.20942 4.92542 7.375 4.81872V4.5625ZM16.75 4.5625V4.67603C15.5096 4.60071 14.2592 4.5625 13 4.5625C11.7408 4.5625 10.4904 4.60071 9.25 4.67603V4.5625C9.25 3.52697 10.0895 2.6875 11.125 2.6875H14.875C15.9105 2.6875 16.75 3.52697 16.75 4.5625ZM13 14.875C13.5178 14.875 13.9375 14.4553 13.9375 13.9375C13.9375 13.4197 13.5178 13 13 13C12.4822 13 12.0625 13.4197 12.0625 13.9375C12.0625 14.4553 12.4822 14.875 13 14.875Z" fill="black" fill-opacity="0.2"/>
<path d="M1.75 20.9999V17.5049C2.0288 17.6578 2.32621 17.7883 2.64129 17.8931C5.90109 18.9768 9.38501 19.5625 13 19.5625C16.615 19.5625 20.0989 18.9769 23.3587 17.8931C23.6738 17.7883 23.9712 17.6578 24.25 17.5049V20.9999C24.25 22.8149 22.9409 24.4094 21.0961 24.6543C18.4469 25.006 15.7444 25.1875 13 25.1875C10.2556 25.1875 7.55308 25.006 4.90392 24.6543C3.05905 24.4094 1.75 22.8148 1.75 20.9999Z" fill="black" fill-opacity="0.2"/>
</svg>
