<svg width="32" height="32" viewBox="0 0 32 32" fill="none" xmlns="http://www.w3.org/2000/svg">
<path d="M1.34862 19.2559C-0.449541 17.4577 -0.449541 14.5423 1.34862 12.7441L4.77831 9.31445C5.80616 8.2866 7.47263 8.2866 8.50048 9.31445L9.06956 9.88352C9.58537 10.3993 9.62306 11.2125 9.62305 11.9419V20.0581C9.62306 21.3387 10.6613 22.3769 11.9419 22.3769H20.0581C21.3387 22.3769 22.3769 21.3387 22.3769 20.0581V11.9419C22.3769 10.6613 21.3387 9.62305 20.0581 9.62305H11.9419C11.2125 9.62305 10.3993 9.58537 9.88352 9.06955L9.31445 8.50048C8.2866 7.47263 8.2866 5.80616 9.31445 4.77831L12.7441 1.34862C14.5423 -0.449541 17.4577 -0.449541 19.2559 1.34862L30.6514 12.7441C32.4495 14.5423 32.4495 17.4577 30.6514 19.2559L19.2559 30.6514C17.4577 32.4495 14.5423 32.4495 12.7441 30.6514L1.34862 19.2559Z" fill="url(#paint0_linear_1_774)"/>
<defs>
<linearGradient id="paint0_linear_1_774" x1="11.1609" y1="7.83069" x2="46.2883" y2="20.8983" gradientUnits="userSpaceOnUse">
<stop stop-color="#2C2B38"/>
<stop offset="1" stop-color="#7C799E"/>
</linearGradient>
</defs>
</svg>
