<svg width="24" height="22" viewBox="0 0 24 22" fill="none" xmlns="http://www.w3.org/2000/svg">
<path d="M4.03125 0.6875C2.21907 0.6875 0.75 2.15657 0.75 3.96875C0.75 5.78093 2.21907 7.25 4.03125 7.25H19.9688C21.7809 7.25 23.25 5.78093 23.25 3.96875C23.25 2.15657 21.7809 0.6875 19.9688 0.6875H4.03125Z" fill="black" fill-opacity="0.2"/>
<path d="M1.6875 10.0625C1.16973 10.0625 0.75 10.4822 0.75 11C0.75 11.5178 1.16973 11.9375 1.6875 11.9375H22.3125C22.8303 11.9375 23.25 11.5178 23.25 11C23.25 10.4822 22.8303 10.0625 22.3125 10.0625H1.6875Z" fill="black" fill-opacity="0.2"/>
<path d="M0.75 15.6875C0.75 15.1697 1.16973 14.75 1.6875 14.75H22.3125C22.8303 14.75 23.25 15.1697 23.25 15.6875C23.25 16.2053 22.8303 16.625 22.3125 16.625H1.6875C1.16973 16.625 0.75 16.2053 0.75 15.6875Z" fill="black" fill-opacity="0.2"/>
<path d="M1.6875 19.4375C1.16973 19.4375 0.75 19.8572 0.75 20.375C0.75 20.8928 1.16973 21.3125 1.6875 21.3125H22.3125C22.8303 21.3125 23.25 20.8928 23.25 20.375C23.25 19.8572 22.8303 19.4375 22.3125 19.4375H1.6875Z" fill="black" fill-opacity="0.2"/>
</svg>
